HIERARCHY
ROOT Hips
{
	OFFSET -0.065777 -0.039915 -0.090800
	CHANNELS 6 Xposition Yposition Zposition Zrotation Yrotation Xrotation 
	JOINT LHipJoint
	{
		OFFSET -0.081400 -0.089336 -0.133639
		CHANNELS 3 Zrotation Yrotation Xrotation
		JOINT LeftUpLeg
		{
			OFFSET -0.128534 -0.216612 -0.293918
			CHANNELS 3 Zrotation Yrotation Xrotation
			JOINT LeftLeg
			{
				OFFSET -0.356167 -0.283278 -0.154315
				CHANNELS 3 Zrotation Yrotation Xrotation
				JOINT LeftFoot
				{
					OFFSET -0.101627 -0.065597 -0.039200
					CHANNELS 3 Zrotation Yrotation Xrotation
					JOINT LeftToeBase
					{
						OFFSET -0.109048 -0.089027 -0.115072
						CHANNELS 3 Zrotation Yrotation Xrotation
						End Site
						{
							OFFSET 0.000000 0.000000 0.000000
						}
					}
				}
			}
		}
	}
	JOINT RHipJoint
	{
		OFFSET -0.149582 -0.054090 0.005844
		CHANNELS 3 Zrotation Yrotation Xrotation
		JOINT RightUpLeg
		{
			OFFSET 0.015301 -0.018052 0.035262
			CHANNELS 3 Zrotation Yrotation Xrotation
			JOINT RightLeg
			{
				OFFSET 0.025427 0.021977 0.043415
				CHANNELS 3 Zrotation Yrotation Xrotation
				JOINT RightFoot
				{
					OFFSET -0.029180 -0.015017 0.034494
					CHANNELS 3 Zrotation Yrotation Xrotation
					JOINT RightToeBase
					{
						OFFSET 0.029200 0.097569 0.052767
						CHANNELS 3 Zrotation Yrotation Xrotation
						End Site
						{
							OFFSET 0.000000 0.000000 0.000000
						}
					}
				}
			}
		}
	}
	JOINT LowerBack
	{
		OFFSET 0.082375 0.070946 -0.017762
		CHANNELS 3 Zrotation Yrotation Xrotation
		JOINT Spine
		{
			OFFSET 0.021683 0.013402 0.007567
			CHANNELS 3 Zrotation Yrotation Xrotation
			JOINT Spine1
			{
				OFFSET 0.073402 0.093975 0.100764
				CHANNELS 3 Zrotation Yrotation Xrotation
				JOINT Neck
				{
					OFFSET 0.102157 0.090582 0.069120
					CHANNELS 3 Zrotation Yrotation Xrotation
					JOINT Neck1
					{
						OFFSET 0.113781 0.114654 0.060599
						CHANNELS 3 Zrotation Yrotation Xrotation
						JOINT Head
						{
							OFFSET 0.105580 0.050779 0.037079
							CHANNELS 3 Zrotation Yrotation Xrotation
							End Site
							{
								OFFSET 0.000000 0.000000 0.000000
							}
						}
					}
				}
				JOINT LeftShoulder
				{
					OFFSET 0.028480 0.033046 0.009857
					CHANNELS 3 Zrotation Yrotation Xrotation
					JOINT LeftArm
					{
						OFFSET 0.008982 0.085359 0.084423
						CHANNELS 3 Zrotation Yrotation Xrotation
						JOINT LeftForeArm
						{
							OFFSET 0.117539 0.082168 0.088799
							CHANNELS 3 Zrotation Yrotation Xrotation
							JOINT LeftHand
							{
								OFFSET 0.104291 0.142103 0.146319
								CHANNELS 3 Zrotation Yrotation Xrotation
								JOINT LeftFingerBase
								{
									OFFSET 0.068060 0.028733 0.037738
									CHANNELS 3 Zrotation Yrotation Xrotation
									JOINT LeftHandIndex1
									{
										OFFSET 0.003935 -0.042724 -0.088382
										CHANNELS 3 Zrotation Yrotation Xrotation
										End Site
										{
											OFFSET 0.000000 0.000000 0.000000
										}
									}
								}
								JOINT LThumb
								{
									OFFSET -0.135474 -0.125326 -0.072482
									CHANNELS 3 Zrotation Yrotation Xrotation
									End Site
									{
										OFFSET 0.000000 0.000000 0.000000
									}
								}
							}
						}
					}
				}
				JOINT RightShoulder
				{
					OFFSET -0.041436 -0.064643 -0.058682
					CHANNELS 3 Zrotation Yrotation Xrotation
					JOINT RightArm
					{
						OFFSET -0.087819 -0.038832 -0.018596
						CHANNELS 3 Zrotation Yrotation Xrotation
						JOINT RightForeArm
						{
							OFFSET -0.043835 0.001157 0.036416
							CHANNELS 3 Zrotation Yrotation Xrotation
							JOINT RightHand
							{
								OFFSET 0.012590 0.023006 -0.013950
								CHANNELS 3 Zrotation Yrotation Xrotation
								JOINT RightFingerBase
								{
									OFFSET -0.048070 -0.039918 -0.037616
									CHANNELS 3 Zrotation Yrotation Xrotation
									JOINT RightHandIndex1
									{
										OFFSET -0.106843 -0.092242 -0.111393
										CHANNELS 3 Zrotation Yrotation Xrotation
										End Site
										{
											OFFSET 0.000000 0.000000 0.000000
										}
									}
								}
								JOINT RThumb
								{
									OFFSET -0.093976 -0.031439 -0.025381
									CHANNELS 3 Zrotation Yrotation Xrotation
									End Site
									{
										OFFSET -0.012675 -0.044893 -0.004024
									}
								}
							}
						}
					}
				}
			}
		}
	}
}
MOTION
Frames: 13
Frame Time: 0.008333
-0.114797 -0.097972 -0.149015 -0.110669 -0.113303 -0.217077 -0.197316 -0.237675 -0.346500 -0.378326 -0.283047 -0.188845 -0.168878 -0.135421 -0.055690 -0.125667 -0.065143 -0.100499 -0.167361 0.001895 0.090171 0.069726 0.054042 0.067672 0.016373 0.054484 0.090493 -0.046423 -0.011032 0.018869 0.023865 0.096709 0.007574 0.077073 0.082651 0.006453 0.076222 0.046096 0.015621 0.042610 0.049685 0.097363 0.044481 0.068970 0.039212 0.042758 0.001302 -0.078291 -0.053102 -0.128052 -0.179763 -0.126836 -0.108449 -0.095280 -0.069974 -0.015283 0.002253 0.081297 0.093834 0.062524 0.026359 0.132354 0.177739 0.156572 0.159015 0.097497 0.090641 -0.025424 -0.040917 -0.062825 -0.020690 0.039603 0.082725 0.061551 0.061366 0.055152 0.080243 0.061996 0.023922 0.095140 0.135985 0.065163 0.071382 -0.014506 -0.041304 -0.021883 0.003526 -0.045915 -0.007473 0.003418 0.067423 0.117954 0.090749 0.102311 0.080645 0.090222
-0.059289 -0.073324 -0.171596 -0.129564 -0.149657 -0.269926 -0.252791 -0.273275 -0.387463 -0.373976 -0.243365 -0.177729 -0.237967 -0.231967 -0.115957 -0.169503 -0.035244 -0.051660 -0.073723 0.115869 0.227155 0.141366 0.099627 0.133477 0.057358 0.089524 0.102292 0.006935 0.067565 0.090590 0.069779 0.105156 0.032753 0.106999 0.140564 0.020674 0.049474 0.012825 -0.036894 -0.004405 0.014854 0.044198 -0.045169 -0.011787 -0.049784 -0.043816 -0.092791 -0.175836 -0.190280 -0.297875 -0.339297 -0.254932 -0.264802 -0.210587 -0.152562 -0.095151 -0.094323 0.004154 0.046335 0.031877 -0.027811 0.096391 0.128263 0.089611 0.117792 0.027920 0.038667 -0.056738 -0.055450 -0.090108 -0.042887 0.040072 0.078659 0.061067 0.069948 0.028805 0.036058 0.005065 -0.029383 0.048052 0.099518 0.040784 0.052614 -0.069322 -0.085015 -0.083252 -0.063904 -0.135129 -0.091699 -0.089709 -0.019214 0.072658 0.082048 0.087193 0.056057 0.042159
0.026428 0.093599 -0.003470 0.103567 0.071424 0.061281 -0.008781 -0.131433 -0.240500 -0.245216 -0.137057 -0.202903 -0.181299 -0.162429 -0.029166 -0.109517 0.065104 0.089986 0.052791 0.283294 0.304430 0.135486 0.084506 0.131830 0.033488 0.054459 0.069864 0.007319 0.103573 0.149259 0.116788 0.132962 0.094484 0.131187 0.199299 0.059266 0.032384 -0.063478 -0.118209 -0.058817 -0.051490 -0.104674 -0.243085 -0.310945 -0.441082 -0.441839 -0.458848 -0.396265 -0.254876 -0.350628 -0.393450 -0.273117 -0.321033 -0.265436 -0.226892 -0.163544 -0.171883 -0.144702 -0.092656 -0.063278 -0.104735 0.029154 0.047464 -0.006603 -0.000565 -0.006538 0.016168 -0.055666 -0.052917 -0.037203 0.034758 0.102285 0.122107 0.070235 0.079665 0.022229 0.055423 -0.015943 -0.055369 -0.034566 -0.026132 -0.023694 0.021543 -0.141631 -0.109974 -0.127680 -0.104220 -0.203534 -0.072349 -0.065515 -0.010653 0.112233 0.144280 0.081276 0.046444 -0.024016
0.070173 0.140945 -0.000522 0.121180 0.083555 0.077292 -0.002335 -0.081543 -0.132752 -0.096678 -0.019571 -0.053273 -0.012119 -0.030503 0.104745 -0.033126 0.128529 0.122532 0.078901 0.318741 0.353758 0.175781 0.160428 0.162876 0.035224 0.034656 0.044764 0.063940 0.177521 0.221141 0.202435 0.199198 0.226607 0.293649 0.351263 0.170942 0.150358 0.059052 -0.033445 0.025678 0.007384 -0.064110 -0.179946 -0.226230 -0.316151 -0.253083 -0.267251 -0.172592 -0.082908 -0.148613 -0.221116 -0.107765 -0.156916 -0.097922 -0.022528 -0.095549 -0.142303 -0.110834 -0.008263 0.054958 -0.008158 0.083712 0.081744 0.033217 -0.016144 -0.049865 -0.017598 -0.073944 -0.041772 -0.031551 0.026357 0.110238 0.139496 0.030019 0.045669 0.015563 0.075110 0.016625 -0.029765 -0.000197 0.036733 0.084933 0.127831 -0.105970 -0.114954 -0.124293 -0.071568 -0.163538 -0.036706 -0.050715 0.004015 0.086374 0.113558 0.076535 0.037742 0.022773
0.068014 0.142454 -0.113708 0.047816 0.063043 0.055745 0.044070 -0.064572 -0.085174 -0.077596 0.022913 -0.067262 -0.010947 -0.021502 0.069493 -0.102028 0.064065 0.051593 -0.047021 0.236729 0.246699 0.122650 0.094396 0.086855 -0.071657 -0.114247 -0.063020 0.004888 0.148983 0.217863 0.205024 0.157899 0.190293 0.229983 0.256265 0.084204 0.103688 0.028306 -0.095511 -0.102448 -0.151948 -0.198100 -0.313279 -0.356850 -0.388431 -0.321916 -0.300230 -0.230835 -0.222604 -0.229721 -0.289401 -0.181128 -0.302059 -0.199884 -0.100425 -0.168381 -0.218822 -0.220584 -0.188268 -0.105994 -0.103997 -0.038537 -0.065814 -0.123618 -0.134970 -0.096384 0.008855 0.027046 0.079418 -0.004314 0.028309 0.114364 0.104732 -0.035692 -0.034369 -0.082401 0.003056 -0.011177 -0.079320 -0.066043 -0.069526 -0.017893 -0.006465 -0.200169 -0.242089 -0.257579 -0.211143 -0.333229 -0.181450 -0.189756 -0.167146 -0.065866 0.002772 -0.020313 -0.062790 -0.094587
0.104487 0.195593 -0.063696 -0.024757 -0.053739 -0.062727 -0.044069 -0.134240 -0.111696 -0.077000 -0.020392 -0.074509 0.019879 0.081116 0.188102 0.030148 0.194884 0.181524 0.054793 0.272904 0.213476 0.092978 0.113822 0.115077 -0.012295 -0.022035 0.028689 0.069889 0.179038 0.233267 0.230492 0.181720 0.186442 0.261311 0.312818 0.106852 0.147967 0.043061 -0.117894 -0.169386 -0.248408 -0.279259 -0.390716 -0.417645 -0.447112 -0.383276 -0.355169 -0.266947 -0.263923 -0.237696 -0.287385 -0.212356 -0.294302 -0.258759 -0.191558 -0.235504 -0.299002 -0.284045 -0.292741 -0.193210 -0.177879 -0.112668 -0.127775 -0.221661 -0.236407 -0.195663 -0.084700 -0.045086 0.030476 -0.025424 0.005003 0.074484 0.067060 -0.039805 -0.019434 -0.065331 -0.032191 0.004920 -0.079470 -0.097275 -0.080314 -0.022651 0.004319 -0.172900 -0.205913 -0.266098 -0.244387 -0.309417 -0.138017 -0.118455 -0.092440 -0.020635 -0.006459 -0.021366 -0.054892 -0.148107
0.192500 0.264726 0.015432 -0.004506 -0.103838 -0.035557 -0.052450 -0.204525 -0.230480 -0.239351 -0.168956 -0.080615 -0.006633 0.009288 0.195739 -0.039351 0.152353 0.078305 0.026582 0.207225 0.096541 0.009016 0.003743 0.116052 0.045888 0.090375 0.096244 0.039121 0.152306 0.142215 0.152782 0.006955 -0.011458 0.144361 0.200355 0.109935 0.163158 0.073687 -0.031260 -0.082183 -0.136220 -0.066617 -0.179337 -0.273229 -0.255545 -0.229819 -0.218000 -0.164278 -0.176374 -0.197638 -0.239274 -0.232304 -0.262252 -0.217013 -0.147694 -0.161853 -0.278067 -0.282751 -0.308982 -0.153648 -0.181269 -0.164774 -0.174966 -0.240503 -0.265527 -0.190783 -0.094006 -0.096209 -0.001666 0.010213 0.034067 0.108189 0.112821 0.047804 0.037448 -0.034454 -0.032728 0.059849 0.019056 -0.036569 -0.021591 0.039912 0.076696 -0.020484 -0.076665 -0.199117 -0.195188 -0.296858 -0.156579 -0.128616 -0.079707 -0.076012 -0.089072 -0.129472 -0.164713 -0.178163
0.142272 0.224565 0.064744 0.101792 0.061307 0.080341 0.063864 -0.127368 -0.129185 -0.118074 -0.072274 -0.026860 -0.005379 -0.028002 0.127134 -0.113480 0.103662 0.062436 0.010341 0.145682 0.014433 -0.028288 -0.069711 0.096911 0.044405 0.053357 -0.003069 -0.025481 0.065047 0.002001 0.056973 -0.048916 -0.049487 0.122970 0.181990 0.148028 0.176112 0.120004 0.044953 -0.025643 -0.024808 0.019194 -0.092755 -0.159118 -0.203179 -0.279306 -0.268797 -0.224333 -0.166179 -0.146009 -0.144817 -0.179448 -0.199678 -0.131265 -0.097286 -0.076200 -0.245165 -0.264384 -0.293119 -0.173156 -0.214603 -0.242101 -0.233993 -0.268618 -0.242506 -0.175905 -0.094269 -0.012383 0.064086 0.086054 0.102796 0.149215 0.183407 0.157932 0.118760 0.041241 -0.018664 0.020561 -0.020121 -0.049923 -0.071023 -0.024623 0.012564 -0.082440 -0.129345 -0.265769 -0.260811 -0.333761 -0.171651 -0.095962 -0.057249 -0.044413 -0.003629 -0.089910 -0.133552 -0.183870
0.140908 0.163571 0.018941 0.033279 0.008013 0.049209 0.037313 -0.113417 -0.097276 -0.029913 -0.016202 0.159890 0.265922 0.198719 0.259433 -0.047345 0.192899 0.141524 0.186438 0.336223 0.210471 0.163543 0.133462 0.273451 0.186510 0.182436 0.077563 0.054638 0.078069 0.047861 0.086037 0.039437 0.066405 0.241909 0.319631 0.135005 0.071446 0.061339 0.002532 0.008256 0.023192 0.071942 0.049269 -0.081740 -0.120093 -0.197073 -0.246894 -0.137437 -0.088808 -0.133837 -0.136156 -0.180313 -0.144287 -0.119003 -0.036565 -0.046160 -0.168410 -0.188064 -0.146489 -0.009067 -0.112711 -0.124495 -0.095404 -0.092456 -0.047519 -0.008350 -0.026898 0.002249 0.011506 0.061628 0.086072 0.153736 0.163939 0.147021 0.075578 0.070940 -0.007927 0.047686 0.035091 -0.040254 -0.038066 0.037255 0.079408 0.071288 0.076596 -0.066724 -0.069414 -0.093369 0.013521 0.093612 0.115424 0.100952 0.158626 0.035197 -0.004880 -0.087451
0.166769 0.168350 0.010920 0.071205 0.067437 0.095990 0.063953 -0.112632 -0.078301 -0.018232 0.003207 0.142550 0.258190 0.248310 0.324339 0.026754 0.205812 0.137459 0.219153 0.333776 0.188864 0.149840 0.118158 0.208117 0.107610 0.114796 0.018144 0.016609 0.035148 0.001533 0.004247 -0.099228 -0.082240 0.080034 0.156172 0.023163 -0.001645 0.009067 -0.002755 0.060348 0.096979 0.143579 0.139400 -0.018056 -0.036207 -0.130510 -0.213980 -0.104600 -0.057357 -0.089708 -0.117836 -0.124232 -0.089768 -0.072184 0.039055 0.018442 -0.023095 -0.067086 -0.033950 0.111557 0.003124 0.015194 0.009147 -0.017285 0.036860 0.125482 0.095354 0.093282 0.039548 0.064997 0.085865 0.166555 0.134149 0.124553 0.049978 0.050401 -0.014409 0.040295 0.057635 0.004431 -0.002005 0.025318 0.049393 0.036596 0.059066 -0.059567 -0.042168 -0.096969 -0.056262 0.001001 0.044552 -0.021188 0.058104 -0.063763 -0.118397 -0.177178
0.217586 0.223962 0.011659 0.103117 0.117774 -0.012482 0.003841 -0.100923 -0.128781 -0.041937 -0.062937 0.041131 0.186358 0.213201 0.237405 -0.162003 0.019973 0.036537 0.099147 0.274470 0.144045 0.185568 0.206820 0.224110 0.101900 -0.016079 -0.150336 -0.156600 -0.070911 -0.119990 -0.116763 -0.061860 -0.060434 0.021411 0.114330 -0.055815 -0.079521 0.007642 -0.038603 -0.035743 0.034518 0.050630 0.032791 -0.107191 -0.161213 -0.299585 -0.370550 -0.298264 -0.281726 -0.297339 -0.348901 -0.293104 -0.282169 -0.224946 -0.122013 -0.122638 -0.133402 -0.156655 -0.081867 0.087783 -0.007617 0.041829 0.007223 0.059191 0.101165 0.173312 0.088565 0.013360 -0.060998 -0.103899 -0.042089 0.007625 0.004736 0.004766 -0.087322 -0.050937 -0.128700 -0.042112 0.006935 -0.043843 -0.000791 0.046446 0.028540 -0.046486 -0.071496 -0.147377 -0.066110 -0.048846 -0.075892 -0.011935 0.075150 0.004918 0.161051 0.017279 -0.045566 -0.174354
0.190453 0.226815 -0.000180 0.044945 0.068285 -0.044158 -0.031410 -0.111239 -0.188444 -0.144326 -0.166486 0.003675 0.203611 0.318304 0.337498 0.001310 0.163196 0.130840 0.178687 0.316502 0.200356 0.101640 0.131036 0.186172 0.070041 -0.054812 -0.190601 -0.247807 -0.106596 -0.133906 -0.146556 -0.059164 -0.096750 -0.056564 0.050222 -0.124446 -0.128976 0.003821 -0.037970 -0.014411 0.014986 0.064055 0.037997 -0.117282 -0.159215 -0.279985 -0.332327 -0.254548 -0.288220 -0.304931 -0.394154 -0.339559 -0.338458 -0.301061 -0.244470 -0.245443 -0.253314 -0.322942 -0.238797 -0.111660 -0.191991 -0.097863 -0.138454 -0.076825 0.023529 0.088682 -0.014493 -0.092651 -0.117739 -0.182383 -0.060385 0.050857 0.032112 0.080205 0.034406 0.085743 0.006819 0.071633 0.138183 0.057966 0.091071 0.142804 0.134953 0.068629 0.064545 -0.043389 0.023747 0.077524 -0.021080 0.056075 0.129921 0.011997 0.102674 -0.035160 -0.073038 -0.180355
0.171660 0.155597 -0.002494 0.017929 0.089069 -0.006296 -0.055120 -0.067620 -0.111864 -0.065069 -0.124608 0.060314 0.073503 0.206127 0.285175 -0.014768 0.138267 0.037070 0.046510 0.163642 0.160340 0.047179 0.142359 0.216360 0.081699 -0.000501 -0.133461 -0.105580 -0.004465 -0.224907 -0.229941 -0.259334 -0.340436 -0.163179 -0.054575 -0.127142 -0.106077 -0.026888 -0.077610 -0.124294 -0.142368 -0.047510 -0.037577 -0.093150 -0.193344 -0.250004 -0.306338 -0.251839 -0.255527 -0.327194 -0.458324 -0.405382 -0.381986 -0.325022 -0.241486 -0.158691 -0.159538 -0.252869 -0.191040 -0.110196 -0.135675 -0.038382 -0.208892 -0.170920 -0.072337 -0.071572 -0.111322 -0.158480 -0.155825 -0.216469 -0.106007 -0.070033 -0.119856 -0.109103 -0.105663 -0.017750 -0.106836 -0.036856 0.039097 -0.033639 -0.040351 0.022784 0.035868 -0.123879 -0.150608 -0.260666 -0.204207 -0.144424 -0.264077 -0.218477 -0.171149 -0.270863 -0.183110 -0.232968 -0.262561 -0.312748
